# xmcd
#
# Track frame offsets: 
#        150
#        15412
#        28488
#        47582
#        61392
#        71912
#        86805
#        102358
#        116111
#        131449
#        145777
#
# Disc length: 2120 seconds
#
# Revision: 0
# Processed by: cddbd v1.5.2PL0 Copyright (c) Steve Scherf et al.
# Submitted via: ExactAudioCopy v0.99pb4
#
DISCID=9e08460b
DTITLE=Railbenders - Like A Wheel
DYEAR=2009
DGENRE=Country
TTITLE0=Like A Wheel
TTITLE1=Black Chrome Horse
TTITLE2=Drive Away
TTITLE3=Saturday And Sunday
TTITLE4=I Drive A Truck
TTITLE5=Drop Me Off At The Honky Tonk
TTITLE6=Big Diesel
TTITLE7=Glass Picket Fence
TTITLE8=It's Time To Party
TTITLE9=Whiskey And Me
TTITLE10=Gone Fishin'
EXTD=
EXTT0=
EXTT1=
EXTT2=
EXTT3=
EXTT4=
EXTT5=
EXTT6=
EXTT7=
EXTT8=
EXTT9=
EXTT10=
PLAYORDER=
